<svg viewBox="0 0 136 65" fill="none" xmlns="http://www.w3.org/2000/svg">
    <path d="M3.76943 18.7363C4.54908 18.9756 4.62586 19.7824 4.7636 20.3927C5.62908 24.0457 6.61161 27.6728 7.243 31.3777C8.56614 39.0029 9.69421 46.6713 10.9351 54.269C11.0338 54.8879 11.1715 55.4982 11.3916 56.136C12.033 53.2477 12.1934 50.3287 12.878 47.4766C13.0774 47.4782 13.2377 47.4885 13.437 47.4901C13.5229 47.9746 13.6912 48.4866 13.6601 48.9969C13.3637 52.9988 13.0325 57.0541 12.6581 61.0733C12.5215 62.5682 11.7668 63.0099 10.6977 62.2398C9.88389 61.6419 9.13535 60.8923 8.46483 60.1254C7.02872 58.4295 5.62736 56.6802 4.22599 54.9309C3.31775 53.759 3.30069 53.5797 3.25137 51.8056C5.87558 53.0094 6.99771 56.0106 9.20068 57.8112C9.18424 57.2198 9.25863 56.7457 9.17696 56.306C7.3791 44.5293 5.5855 32.7975 3.78764 21.0208C3.68038 20.3122 3.29576 19.6193 3.76943 18.7363Z" fill="url(#paint0_linear_4_134)"/>
    <path d="M40.2898 8.99959C41.1548 9.50794 41.1499 10.5085 41.2374 11.2876C41.8081 15.9624 42.5157 20.6385 42.8124 25.3109C43.4502 34.9338 43.8597 44.5547 44.4064 54.1212C44.4483 54.8998 44.5358 55.6789 44.7143 56.5144C45.7807 53.1889 46.3 49.6916 47.4117 46.4221C47.6397 46.4799 47.822 46.5371 48.05 46.5949C48.0927 47.2067 48.2264 47.8751 48.1321 48.4857C47.3326 53.259 46.4872 58.0874 45.5964 62.8599C45.2681 64.6357 44.3534 64.9607 43.2181 63.7272C42.3553 62.7742 41.5846 61.6552 40.9052 60.5371C39.4563 58.0777 38.0533 55.5631 36.6503 53.0485C35.7453 51.3724 35.7464 51.15 35.894 48.9834C38.7595 51.1781 39.699 55.1337 42.0137 57.9347C42.0629 57.2125 42.2026 56.6578 42.1596 56.1015C41.4558 41.3081 40.7518 26.5703 40.048 11.7768C40.0067 10.887 39.6461 9.93863 40.2898 8.99959Z" fill="url(#paint1_linear_4_134)"/>
    <path d="M69.0777 1.01355C69.906 1.68225 69.8342 2.8108 69.8694 3.69956C70.1257 9.03764 70.5185 14.3922 70.502 19.6973C70.4945 30.6265 70.2597 41.5282 70.1652 52.3838C70.1549 53.267 70.19 54.1558 70.3121 55.1183C71.5974 51.4828 72.3488 47.5933 73.6755 44.026C73.899 44.1161 74.0769 44.2008 74.3003 44.291C74.3019 44.9862 74.3905 45.755 74.2557 46.4337C73.1397 51.7323 71.9742 57.0881 70.7673 62.3758C70.3213 64.3436 69.3878 64.6099 68.3385 63.0931C67.5422 61.9228 66.8487 60.5754 66.2463 59.2391C64.9663 56.3045 63.7358 53.3127 62.5054 50.3209C61.7154 48.33 61.7313 48.0793 62.0232 45.6505C64.733 48.442 65.405 53.009 67.5252 56.4242C67.6225 55.6146 67.7988 55.0041 67.7932 54.3716C68.0804 37.6005 68.3637 20.8921 68.651 4.12097C68.6693 3.1123 68.3732 2.00247 69.0777 1.01355Z" fill="url(#paint2_linear_4_134)"/>
    <path d="M100.142 3.7389C100.784 4.53915 100.613 5.58989 100.557 6.43607C100.258 11.5277 100.073 16.6627 99.5447 21.6674C98.4782 31.9833 97.2202 42.2269 96.0866 52.4555C95.9921 53.2872 95.9359 54.1334 95.9467 55.0669C97.3958 51.8972 98.4141 48.3786 99.892 45.2817C100.074 45.4124 100.217 45.5287 100.399 45.6594C100.333 46.316 100.334 47.0599 100.153 47.6731C98.6873 52.4474 97.1735 57.2656 95.6309 62.011C95.0596 63.7778 94.2374 63.8387 93.4894 62.1928C92.9236 60.9255 92.4628 59.5121 92.0785 58.1276C91.2712 55.0961 90.5118 52.0208 89.7523 48.9454C89.2715 46.9048 89.3094 46.6713 89.794 44.4381C91.8349 47.6261 91.9652 52.0746 93.4425 55.7311C93.6041 54.9867 93.8137 54.4464 93.8703 53.8481C95.7422 38.0744 97.6047 22.3591 99.4767 6.58533C99.5901 5.63686 99.4452 4.52875 100.142 3.7389Z" fill="url(#paint3_linear_4_134)"/>
    <path d="M129.495 18.6947C130.073 19.5146 129.858 20.267 129.763 20.8989C129.227 24.7138 128.8 28.5988 128.048 32.2736C126.52 39.8555 124.812 47.3207 123.224 54.8141C123.092 55.4227 122.997 56.0547 122.962 56.7751C124.511 54.804 125.662 52.4273 127.235 50.5214C127.403 50.68 127.536 50.8152 127.704 50.9737C127.609 51.4569 127.574 52.0286 127.37 52.4417C125.727 55.6397 124.036 58.8562 122.321 62.0075C121.685 63.1817 120.891 62.9655 120.251 61.4621C119.768 60.3078 119.394 59.0749 119.091 57.8886C118.462 55.3021 117.88 52.6972 117.299 50.0923C116.935 48.3712 116.983 48.204 117.558 46.6438C119.367 49.7451 119.276 53.2034 120.52 56.4843C120.712 55.9642 120.94 55.6162 121.023 55.1749C123.591 43.6587 126.148 32.1843 128.716 20.6681C128.871 19.9759 128.786 19.0784 129.495 18.6947Z" fill="url(#paint4_linear_4_134)"/>
    <defs>
        <linearGradient id="paint0_linear_4_134" x1="9.64612" y1="63.0717" x2="0.0116923" y2="19.5685" gradientUnits="userSpaceOnUse">
            <stop stop-color="#FF0033"/>
            <stop offset="1" stop-color="#9B0000"/>
        </linearGradient>
        <linearGradient id="paint1_linear_4_134" x1="41.9187" y1="64.4427" x2="42.4338" y2="9.01952" gradientUnits="userSpaceOnUse">
            <stop stop-color="#FF0033"/>
            <stop offset="1" stop-color="#9B0000"/>
        </linearGradient>
        <linearGradient id="paint2_linear_4_134" x1="66.9954" y1="63.7577" x2="74.4984" y2="1.66859" gradientUnits="userSpaceOnUse">
            <stop stop-color="#FF0033"/>
            <stop offset="1" stop-color="#9B0000"/>
        </linearGradient>
        <linearGradient id="paint3_linear_4_134" x1="92.2792" y1="62.5462" x2="112.715" y2="8.49245" gradientUnits="userSpaceOnUse">
            <stop stop-color="#FF0033"/>
            <stop offset="1" stop-color="#9B0000"/>
        </linearGradient>
        <linearGradient id="paint4_linear_4_134" x1="119.069" y1="61.3465" x2="141.588" y2="26.5124" gradientUnits="userSpaceOnUse">
            <stop stop-color="#FF0033"/>
            <stop offset="1" stop-color="#9B0000"/>
        </linearGradient>
    </defs>
</svg>
