<svg viewBox="0 0 136 64" fill="none" xmlns="http://www.w3.org/2000/svg">
    <path d="M3.76943 18.2363C4.54908 18.4756 4.62586 19.2824 4.7636 19.8927C5.62908 23.5457 6.61161 27.1728 7.243 30.8777C8.56614 38.5029 9.69421 46.1713 10.9351 53.769C11.0338 54.3879 11.1715 54.9982 11.3916 55.636C12.033 52.7477 12.1934 49.8287 12.878 46.9766C13.0774 46.9782 13.2377 46.9885 13.437 46.9901C13.5229 47.4746 13.6912 47.9866 13.6601 48.4969C13.3637 52.4988 13.0325 56.5541 12.6581 60.5733C12.5215 62.0682 11.7668 62.5099 10.6977 61.7398C9.88389 61.1419 9.13535 60.3923 8.46483 59.6254C7.02872 57.9295 5.62736 56.1802 4.22599 54.4309C3.31775 53.259 3.30069 53.0797 3.25137 51.3056C5.87558 52.5094 6.99771 55.5106 9.20068 57.3112C9.18424 56.7198 9.25863 56.2457 9.17696 55.806C7.3791 44.0293 5.5855 32.2975 3.78764 20.5208C3.68038 19.8122 3.29576 19.1193 3.76943 18.2363Z" fill="url(#paint0_linear_3003_315)"/>
    <path d="M40.2897 8.49959C41.1547 9.00794 41.1498 10.0085 41.2373 10.7876C41.808 15.4624 42.5156 20.1385 42.8123 24.8109C43.4501 34.4338 43.8596 44.0547 44.4063 53.6212C44.4482 54.3998 44.5357 55.1789 44.7142 56.0144C45.7805 52.6889 46.2998 49.1916 47.4116 45.9221C47.6396 45.9799 47.8219 46.0371 48.0499 46.0949C48.0926 46.7067 48.2263 47.3751 48.132 47.9857C47.3325 52.759 46.4871 57.5874 45.5963 62.3599C45.268 64.1357 44.3533 64.4607 43.2179 63.2272C42.3551 62.2742 41.5845 61.1552 40.9051 60.0371C39.4562 57.5777 38.0532 55.0631 36.6501 52.5485C35.7452 50.8724 35.7463 50.65 35.8939 48.4834C38.7594 50.6781 39.6988 54.6337 42.0136 57.4347C42.0628 56.7125 42.2024 56.1578 42.1595 55.6015C41.4557 40.8081 40.7516 26.0703 40.0479 11.2768C40.0066 10.387 39.6459 9.43863 40.2897 8.49959Z" fill="url(#paint1_linear_3003_315)"/>
    <path d="M69.0777 0.513545C69.906 1.18225 69.8342 2.3108 69.8694 3.19956C70.1257 8.53764 70.5185 13.8922 70.502 19.1973C70.4945 30.1265 70.2597 41.0282 70.1652 51.8838C70.1549 52.767 70.19 53.6558 70.3121 54.6183C71.5974 50.9828 72.3488 47.0933 73.6755 43.526C73.899 43.6161 74.0769 43.7008 74.3003 43.791C74.3019 44.4862 74.3905 45.255 74.2557 45.9337C73.1397 51.2323 71.9742 56.5881 70.7673 61.8758C70.3213 63.8436 69.3878 64.1099 68.3385 62.5931C67.5422 61.4228 66.8487 60.0754 66.2463 58.7391C64.9663 55.8045 63.7358 52.8127 62.5054 49.8209C61.7154 47.83 61.7313 47.5793 62.0232 45.1505C64.733 47.942 65.405 52.509 67.5252 55.9242C67.6225 55.1146 67.7988 54.5041 67.7932 53.8716C68.0804 37.1005 68.3637 20.3921 68.651 3.62097C68.6693 2.6123 68.3732 1.50247 69.0777 0.513545Z" fill="url(#paint2_linear_3003_315)"/>
    <path d="M100.142 3.2389C100.784 4.03915 100.613 5.08989 100.557 5.93607C100.258 11.0277 100.073 16.1627 99.5447 21.1674C98.4782 31.4833 97.2202 41.7269 96.0866 51.9555C95.9921 52.7872 95.9359 53.6334 95.9467 54.5669C97.3958 51.3972 98.4141 47.8786 99.892 44.7817C100.074 44.9124 100.217 45.0287 100.399 45.1594C100.333 45.816 100.334 46.5599 100.153 47.1731C98.6873 51.9474 97.1735 56.7656 95.6309 61.511C95.0596 63.2778 94.2374 63.3387 93.4894 61.6928C92.9236 60.4255 92.4628 59.0121 92.0785 57.6276C91.2712 54.5961 90.5118 51.5208 89.7523 48.4454C89.2715 46.4048 89.3094 46.1713 89.794 43.9381C91.8349 47.1261 91.9652 51.5746 93.4425 55.2311C93.6041 54.4867 93.8137 53.9464 93.8703 53.3481C95.7422 37.5744 97.6047 21.8591 99.4767 6.08533C99.5901 5.13686 99.4452 4.02875 100.142 3.2389Z" fill="url(#paint3_linear_3003_315)"/>
    <path d="M129.495 18.1947C130.073 19.0146 129.858 19.767 129.763 20.3989C129.227 24.2138 128.8 28.0988 128.048 31.7736C126.52 39.3555 124.812 46.8207 123.224 54.3141C123.092 54.9227 122.997 55.5547 122.962 56.2751C124.511 54.304 125.662 51.9273 127.235 50.0214C127.403 50.18 127.536 50.3152 127.704 50.4737C127.609 50.9569 127.574 51.5286 127.37 51.9417C125.727 55.1397 124.036 58.3562 122.321 61.5075C121.685 62.6817 120.891 62.4655 120.251 60.9621C119.768 59.8078 119.394 58.5749 119.091 57.3886C118.462 54.8021 117.88 52.1972 117.299 49.5923C116.935 47.8712 116.983 47.704 117.558 46.1438C119.367 49.2451 119.276 52.7034 120.52 55.9843C120.712 55.4642 120.94 55.1162 121.023 54.6749C123.591 43.1587 126.148 31.6843 128.716 20.1681C128.871 19.4759 128.786 18.5784 129.495 18.1947Z" fill="url(#paint4_linear_3003_315)"/>
    <defs>
        <linearGradient id="paint0_linear_3003_315" x1="9.64612" y1="62.5717" x2="0.0116927" y2="19.0685" gradientUnits="userSpaceOnUse">
            <stop stop-color="#452B26"/>
            <stop offset="1" stop-color="#AB6B5E"/>
        </linearGradient>
        <linearGradient id="paint1_linear_3003_315" x1="41.9185" y1="63.9427" x2="42.4337" y2="8.51952" gradientUnits="userSpaceOnUse">
            <stop stop-color="#452B26"/>
            <stop offset="1" stop-color="#AB6B5E"/>
        </linearGradient>
        <linearGradient id="paint2_linear_3003_315" x1="66.9954" y1="63.2577" x2="74.4984" y2="1.16859" gradientUnits="userSpaceOnUse">
            <stop stop-color="#452B26"/>
            <stop offset="1" stop-color="#AB6B5E"/>
        </linearGradient>
        <linearGradient id="paint3_linear_3003_315" x1="92.2792" y1="62.0462" x2="112.715" y2="7.99245" gradientUnits="userSpaceOnUse">
            <stop stop-color="#452B26"/>
            <stop offset="1" stop-color="#AB6B5E"/>
        </linearGradient>
        <linearGradient id="paint4_linear_3003_315" x1="119.069" y1="60.8465" x2="141.588" y2="26.0124" gradientUnits="userSpaceOnUse">
            <stop stop-color="#452B26"/>
            <stop offset="1" stop-color="#AB6B5E"/>
        </linearGradient>
    </defs>
</svg>
