<svg viewBox="0 0 21 24" fill="none" xmlns="http://www.w3.org/2000/svg">
    <path d="M2.41353 23.9792C1.80312 23.9792 1.28646 23.7677 0.863541 23.3448C0.440624 22.9219 0.229166 22.4052 0.229166 21.7948V5.62188C0.229166 5.01147 0.440624 4.49481 0.863541 4.07189C1.28646 3.64898 1.80312 3.43752 2.41353 3.43752H4.08647V1.8108C4.08647 1.54597 4.17518 1.32485 4.3526 1.14742C4.53003 0.970203 4.75115 0.881592 5.01598 0.881592C5.28101 0.881592 5.50213 0.970203 5.67935 1.14742C5.85678 1.32485 5.94549 1.54597 5.94549 1.8108V3.43752H15.101V1.78784C15.101 1.53067 15.1877 1.31528 15.3611 1.14169C15.5347 0.968289 15.7501 0.881592 16.0073 0.881592C16.2645 0.881592 16.4797 0.968289 16.6531 1.14169C16.8267 1.31528 16.9135 1.53067 16.9135 1.78784V3.43752H18.5865C19.1969 3.43752 19.7135 3.64898 20.1365 4.07189C20.5594 4.49481 20.7708 5.01147 20.7708 5.62188V21.7948C20.7708 22.4052 20.5594 22.9219 20.1365 23.3448C19.7135 23.7677 19.1969 23.9792 18.5865 23.9792H2.41353ZM2.41353 22.1667H18.5865C18.6795 22.1667 18.7647 22.1279 18.842 22.0504C18.9196 21.973 18.9583 21.8879 18.9583 21.7948V10.4552H2.04167V21.7948C2.04167 21.8879 2.08043 21.973 2.15797 22.0504C2.2353 22.1279 2.32049 22.1667 2.41353 22.1667ZM2.04167 8.64272H18.9583V5.62188C18.9583 5.52884 18.9196 5.44365 18.842 5.36632C18.7647 5.28878 18.6795 5.25002 18.5865 5.25002H2.41353C2.32049 5.25002 2.2353 5.28878 2.15797 5.36632C2.08043 5.44365 2.04167 5.52884 2.04167 5.62188V8.64272ZM10.5 15.0097C10.2042 15.0097 9.95202 14.9055 9.74358 14.6971C9.53535 14.4888 9.43123 14.2367 9.43123 13.9407C9.43123 13.6448 9.53535 13.3927 9.74358 13.1842C9.95202 12.976 10.2042 12.8719 10.5 12.8719C10.7958 12.8719 11.048 12.976 11.2564 13.1842C11.4647 13.3927 11.5688 13.6448 11.5688 13.9407C11.5688 14.2367 11.4647 14.4888 11.2564 14.6971C11.048 14.9055 10.7958 15.0097 10.5 15.0097ZM5.66667 15.0097C5.37083 15.0097 5.11869 14.9055 4.91025 14.6971C4.70201 14.4888 4.59789 14.2367 4.59789 13.9407C4.59789 13.6448 4.70201 13.3927 4.91025 13.1842C5.11869 12.976 5.37083 12.8719 5.66667 12.8719C5.96251 12.8719 6.21465 12.976 6.42308 13.1842C6.63132 13.3927 6.73544 13.6448 6.73544 13.9407C6.73544 14.2367 6.63132 14.4888 6.42308 14.6971C6.21465 14.9055 5.96251 15.0097 5.66667 15.0097ZM15.3333 15.0097C15.0375 15.0097 14.7854 14.9055 14.5769 14.6971C14.3687 14.4888 14.2646 14.2367 14.2646 13.9407C14.2646 13.6448 14.3687 13.3927 14.5769 13.1842C14.7854 12.976 15.0375 12.8719 15.3333 12.8719C15.6292 12.8719 15.8813 12.976 16.0897 13.1842C16.298 13.3927 16.4021 13.6448 16.4021 13.9407C16.4021 14.2367 16.298 14.4888 16.0897 14.6971C15.8813 14.9055 15.6292 15.0097 15.3333 15.0097ZM10.5 19.75C10.2042 19.75 9.95202 19.6458 9.74358 19.4374C9.53535 19.2291 9.43123 18.9771 9.43123 18.6812C9.43123 18.3852 9.53535 18.1331 9.74358 17.9248C9.95202 17.7164 10.2042 17.6122 10.5 17.6122C10.7958 17.6122 11.048 17.7164 11.2564 17.9248C11.4647 18.1331 11.5688 18.3852 11.5688 18.6812C11.5688 18.9771 11.4647 19.2291 11.2564 19.4374C11.048 19.6458 10.7958 19.75 10.5 19.75ZM5.66667 19.75C5.37083 19.75 5.11869 19.6458 4.91025 19.4374C4.70201 19.2291 4.59789 18.9771 4.59789 18.6812C4.59789 18.3852 4.70201 18.1331 4.91025 17.9248C5.11869 17.7164 5.37083 17.6122 5.66667 17.6122C5.96251 17.6122 6.21465 17.7164 6.42308 17.9248C6.63132 18.1331 6.73544 18.3852 6.73544 18.6812C6.73544 18.9771 6.63132 19.2291 6.42308 19.4374C6.21465 19.6458 5.96251 19.75 5.66667 19.75ZM15.3333 19.75C15.0375 19.75 14.7854 19.6458 14.5769 19.4374C14.3687 19.2291 14.2646 18.9771 14.2646 18.6812C14.2646 18.3852 14.3687 18.1331 14.5769 17.9248C14.7854 17.7164 15.0375 17.6122 15.3333 17.6122C15.6292 17.6122 15.8813 17.7164 16.0897 17.9248C16.298 18.1331 16.4021 18.3852 16.4021 18.6812C16.4021 18.9771 16.298 19.2291 16.0897 19.4374C15.8813 19.6458 15.6292 19.75 15.3333 19.75Z" fill="#5B3735"/>
</svg>
