<svg viewBox="0 0 22 28" fill="none" xmlns="http://www.w3.org/2000/svg">
    <path d="M8.46313 5.97125L9.21594 8.06188C9.62901 9.20798 10.2898 10.2488 11.1513 11.1103C12.0127 11.9717 13.0536 12.6326 14.1997 13.0456L16.2903 13.7984C16.3316 13.8136 16.3672 13.841 16.3924 13.8771C16.4176 13.9131 16.4311 13.956 16.4311 14C16.4311 14.044 16.4176 14.0869 16.3924 14.1229C16.3672 14.159 16.3316 14.1864 16.2903 14.2016L14.1997 14.9544C13.0536 15.3674 12.0127 16.0283 11.1513 16.8897C10.2898 17.7512 9.62901 18.792 9.21594 19.9381L8.46313 22.0287C8.44799 22.07 8.42054 22.1057 8.38449 22.1308C8.34844 22.156 8.30553 22.1695 8.26156 22.1695C8.2176 22.1695 8.17468 22.156 8.13864 22.1308C8.10259 22.1057 8.07514 22.07 8.06 22.0287L7.30719 19.9381C6.89412 18.792 6.23331 17.7512 5.37186 16.8897C4.51041 16.0283 3.46954 15.3674 2.32344 14.9544L0.232815 14.2016C0.191533 14.1864 0.155895 14.159 0.130718 14.1229C0.105542 14.0869 0.092041 14.044 0.092041 14C0.092041 13.956 0.105542 13.9131 0.130718 13.8771C0.155895 13.841 0.191533 13.8136 0.232815 13.7984L2.32344 13.0456C3.46954 12.6326 4.51041 11.9717 5.37186 11.1103C6.23331 10.2488 6.89412 9.20798 7.30719 8.06188L8.06 5.97125C8.07472 5.92955 8.10201 5.89344 8.13811 5.8679C8.17421 5.84236 8.21734 5.82865 8.26156 5.82865C8.30579 5.82865 8.34892 5.84236 8.38502 5.8679C8.42112 5.89344 8.44841 5.92955 8.46313 5.97125ZM17.8738 0.947189L18.2553 2.00563C18.4647 2.58591 18.7994 3.11292 19.2356 3.54913C19.6718 3.98534 20.1988 4.32003 20.7791 4.52938L21.8375 4.91094C21.8585 4.91857 21.8766 4.93247 21.8894 4.95075C21.9022 4.96904 21.909 4.99081 21.909 5.01313C21.909 5.03544 21.9022 5.05722 21.8894 5.0755C21.8766 5.09378 21.8585 5.10768 21.8375 5.11531L20.7791 5.49688C20.1988 5.70623 19.6718 6.04092 19.2356 6.47713C18.7994 6.91334 18.4647 7.44034 18.2553 8.02063L17.8738 9.07906C17.8661 9.10003 17.8522 9.11814 17.8339 9.13094C17.8157 9.14374 17.7939 9.15061 17.7716 9.15061C17.7492 9.15061 17.7275 9.14374 17.7092 9.13094C17.6909 9.11814 17.677 9.10003 17.6694 9.07906L17.2878 8.02063C17.0785 7.44034 16.7438 6.91334 16.3076 6.47713C15.8714 6.04092 15.3443 5.70623 14.7641 5.49688L13.7056 5.11531C13.6847 5.10768 13.6665 5.09378 13.6537 5.0755C13.6409 5.05722 13.6341 5.03544 13.6341 5.01313C13.6341 4.99081 13.6409 4.96904 13.6537 4.95075C13.6665 4.93247 13.6847 4.91857 13.7056 4.91094L14.7641 4.52938C15.3443 4.32003 15.8714 3.98534 16.3076 3.54913C16.7438 3.11292 17.0785 2.58591 17.2878 2.00563L17.6694 0.947189C17.677 0.92622 17.6909 0.908107 17.7092 0.895309C17.7275 0.88251 17.7492 0.875645 17.7716 0.875645C17.7939 0.875645 17.8157 0.88251 17.8339 0.895309C17.8522 0.908107 17.8661 0.92622 17.8738 0.947189ZM17.8738 18.9219L18.2553 19.9803C18.4647 20.5606 18.7994 21.0876 19.2356 21.5238C19.6718 21.96 20.1988 22.2947 20.7791 22.5041L21.8375 22.8856C21.8585 22.8933 21.8766 22.9072 21.8894 22.9254C21.9022 22.9437 21.909 22.9655 21.909 22.9878C21.909 23.0101 21.9022 23.0319 21.8894 23.0502C21.8766 23.0685 21.8585 23.0824 21.8375 23.09L20.7791 23.4716C20.1988 23.6809 19.6718 24.0156 19.2356 24.4518C18.7994 24.888 18.4647 25.415 18.2553 25.9953L17.8738 27.0538C17.8661 27.0747 17.8522 27.0928 17.8339 27.1056C17.8157 27.1184 17.7939 27.1253 17.7716 27.1253C17.7492 27.1253 17.7275 27.1184 17.7092 27.1056C17.6909 27.0928 17.677 27.0747 17.6694 27.0538L17.2878 25.9953C17.0785 25.415 16.7438 24.888 16.3076 24.4518C15.8714 24.0156 15.3443 23.6809 14.7641 23.4716L13.7056 23.09C13.6847 23.0824 13.6665 23.0685 13.6537 23.0502C13.6409 23.0319 13.6341 23.0101 13.6341 22.9878C13.6341 22.9655 13.6409 22.9437 13.6537 22.9254C13.6665 22.9072 13.6847 22.8933 13.7056 22.8856L14.7641 22.5041C15.3443 22.2947 15.8714 21.96 16.3076 21.5238C16.7438 21.0876 17.0785 20.5606 17.2878 19.9803L17.6694 18.9219C17.7041 18.8263 17.84 18.8263 17.8738 18.9219Z" fill="#0866FF"/>
</svg>
