<svg viewBox="0 0 182 41" fill="none" xmlns="http://www.w3.org/2000/svg">
    <rect x="4.99988" y="17.5" width="137" height="6" fill="black"/>
    <circle cx="20.6552" cy="20.5" r="20" fill="url(#paint0_linear_4_120)"/>
    <path fill-rule="evenodd" clip-rule="evenodd" d="M30.3294 13.426C30.8083 13.9231 30.8083 14.7292 30.3294 15.2264L18.8831 27.1083C18.4041 27.6055 17.6277 27.6055 17.1487 27.1083L10.608 20.3186C10.129 19.8214 10.129 19.0155 10.608 18.5183C11.0869 18.0211 11.8634 18.0211 12.3424 18.5183L18.0159 24.4077L28.5951 13.426C29.074 12.9288 29.8504 12.9288 30.3294 13.426Z" fill="white"/>
    <circle cx="90.9999" cy="20.5" r="20" fill="url(#paint1_linear_4_120)"/>
    <path fill-rule="evenodd" clip-rule="evenodd" d="M100.329 13.426C100.808 13.9231 100.808 14.7292 100.329 15.2264L88.8831 27.1083C88.4041 27.6055 87.6277 27.6055 87.1487 27.1083L80.608 20.3186C80.129 19.8214 80.129 19.0155 80.608 18.5183C81.0869 18.0211 81.8634 18.0211 82.3424 18.5183L88.0159 24.4077L98.5951 13.426C99.074 12.9288 99.8504 12.9288 100.329 13.426Z" fill="white"/>
    <circle cx="161.345" cy="20.5" r="19" stroke="url(#paint2_linear_4_120)" stroke-width="2"/>
    <path d="M154.659 16.964C154.752 15.0973 155.406 13.66 156.619 12.652C157.851 11.6253 159.466 11.112 161.463 11.112C162.826 11.112 163.992 11.3547 164.963 11.84C165.934 12.3067 166.662 12.9507 167.147 13.772C167.651 14.5747 167.903 15.4893 167.903 16.516C167.903 17.692 167.595 18.6907 166.979 19.512C166.382 20.3147 165.663 20.856 164.823 21.136V21.248C165.906 21.584 166.746 22.1813 167.343 23.04C167.959 23.8987 168.267 25 168.267 26.344C168.267 27.464 168.006 28.4627 167.483 29.34C166.979 30.2173 166.223 30.908 165.215 31.412C164.226 31.8973 163.031 32.14 161.631 32.14C159.522 32.14 157.804 31.608 156.479 30.544C155.154 29.48 154.454 27.912 154.379 25.84H158.187C158.224 26.7547 158.532 27.492 159.111 28.052C159.708 28.5933 160.52 28.864 161.547 28.864C162.499 28.864 163.227 28.6027 163.731 28.08C164.254 27.5387 164.515 26.848 164.515 26.008C164.515 24.888 164.16 24.0853 163.451 23.6C162.742 23.1147 161.64 22.872 160.147 22.872H159.335V19.652H160.147C162.798 19.652 164.123 18.7653 164.123 16.992C164.123 16.1893 163.88 15.564 163.395 15.116C162.928 14.668 162.247 14.444 161.351 14.444C160.474 14.444 159.792 14.6867 159.307 15.172C158.84 15.6387 158.57 16.236 158.495 16.964H154.659Z" fill="black"/>
    <defs>
        <linearGradient id="paint0_linear_4_120" x1="20.6552" y1="0.5" x2="20.6552" y2="40.5" gradientUnits="userSpaceOnUse">
            <stop stop-color="#FF0033"/>
            <stop offset="1" stop-color="#9B0000"/>
        </linearGradient>
        <linearGradient id="paint1_linear_4_120" x1="90.9999" y1="0.5" x2="90.9999" y2="40.5" gradientUnits="userSpaceOnUse">
            <stop stop-color="#FF0033"/>
            <stop offset="1" stop-color="#9B0000"/>
        </linearGradient>
        <linearGradient id="paint2_linear_4_120" x1="161.345" y1="0.5" x2="161.345" y2="40.5" gradientUnits="userSpaceOnUse">
            <stop stop-color="#FF0033"/>
            <stop offset="1" stop-color="#9B0000"/>
        </linearGradient>
    </defs>
</svg>
