<svg viewBox="0 0 182 40" fill="none" xmlns="http://www.w3.org/2000/svg">
    <rect x="4.99988" y="17" width="137" height="6" fill="black"/>
    <circle cx="20.6552" cy="20" r="20" fill="#452B26"/>
    <path fill-rule="evenodd" clip-rule="evenodd" d="M28.7012 14.3101C29.0996 14.7236 29.0996 15.394 28.7012 15.8075L19.1812 25.6899C18.7828 26.1034 18.1371 26.1034 17.7387 25.6899L12.2987 20.0428C11.9004 19.6293 11.9004 18.959 12.2987 18.5455C12.697 18.132 13.3429 18.132 13.7412 18.5455L18.46 23.4437L27.2588 14.3101C27.6571 13.8966 28.3029 13.8966 28.7012 14.3101Z" fill="white"/>
    <circle cx="90.9999" cy="20" r="20" fill="#452B26"/>
    <path fill-rule="evenodd" clip-rule="evenodd" d="M98.7012 14.3101C99.0995 14.7236 99.0995 15.394 98.7012 15.8075L89.1812 25.6899C88.7828 26.1034 88.1371 26.1034 87.7387 25.6899L82.2987 20.0428C81.9004 19.6293 81.9004 18.959 82.2987 18.5455C82.697 18.132 83.3429 18.132 83.7412 18.5455L88.4599 23.4437L97.2588 14.3101C97.6571 13.8966 98.3028 13.8966 98.7012 14.3101Z" fill="white"/>
    <circle cx="161.345" cy="20" r="19" stroke="#452B26" stroke-width="2"/>
    <mask id="path-7-outside-1_3003_300" maskUnits="userSpaceOnUse" x="156" y="10" width="10" height="19" fill="black">
        <rect fill="white" x="156" y="10" width="10" height="19"/>
        <path d="M160.923 28.24C159.627 28.24 158.643 27.88 157.971 27.16C157.315 26.44 156.987 25.408 156.987 24.064V22.696H159.483V24.184C159.483 25.288 159.939 25.84 160.851 25.84C161.299 25.84 161.635 25.704 161.859 25.432C162.099 25.144 162.219 24.648 162.219 23.944V22.576C162.219 21.808 162.083 21.264 161.811 20.944C161.539 20.608 161.099 20.44 160.491 20.44H159.603V18.04H160.563C161.091 18.04 161.483 17.904 161.739 17.632C162.011 17.36 162.147 16.904 162.147 16.264V15.04C162.147 14.464 162.027 14.04 161.787 13.768C161.547 13.496 161.227 13.36 160.827 13.36C159.979 13.36 159.555 13.88 159.555 14.92V16.024H157.059V15.136C157.059 13.792 157.387 12.76 158.043 12.04C158.715 11.32 159.675 10.96 160.923 10.96C162.187 10.96 163.147 11.32 163.803 12.04C164.459 12.744 164.787 13.768 164.787 15.112V15.712C164.787 16.624 164.635 17.36 164.331 17.92C164.027 18.464 163.555 18.856 162.915 19.096V19.144C163.603 19.4 164.099 19.816 164.403 20.392C164.707 20.968 164.859 21.704 164.859 22.6V24.088C164.859 25.432 164.523 26.464 163.851 27.184C163.195 27.888 162.219 28.24 160.923 28.24Z"/>
    </mask>
    <path d="M160.923 28.24C159.627 28.24 158.643 27.88 157.971 27.16C157.315 26.44 156.987 25.408 156.987 24.064V22.696H159.483V24.184C159.483 25.288 159.939 25.84 160.851 25.84C161.299 25.84 161.635 25.704 161.859 25.432C162.099 25.144 162.219 24.648 162.219 23.944V22.576C162.219 21.808 162.083 21.264 161.811 20.944C161.539 20.608 161.099 20.44 160.491 20.44H159.603V18.04H160.563C161.091 18.04 161.483 17.904 161.739 17.632C162.011 17.36 162.147 16.904 162.147 16.264V15.04C162.147 14.464 162.027 14.04 161.787 13.768C161.547 13.496 161.227 13.36 160.827 13.36C159.979 13.36 159.555 13.88 159.555 14.92V16.024H157.059V15.136C157.059 13.792 157.387 12.76 158.043 12.04C158.715 11.32 159.675 10.96 160.923 10.96C162.187 10.96 163.147 11.32 163.803 12.04C164.459 12.744 164.787 13.768 164.787 15.112V15.712C164.787 16.624 164.635 17.36 164.331 17.92C164.027 18.464 163.555 18.856 162.915 19.096V19.144C163.603 19.4 164.099 19.816 164.403 20.392C164.707 20.968 164.859 21.704 164.859 22.6V24.088C164.859 25.432 164.523 26.464 163.851 27.184C163.195 27.888 162.219 28.24 160.923 28.24Z" fill="black"/>
    <path d="M157.971 27.16L157.461 27.6245L157.467 27.6306L157.971 27.16ZM156.987 22.696V22.0063H156.298V22.696H156.987ZM159.483 22.696H160.173V22.0063H159.483V22.696ZM161.859 25.432L161.329 24.9905L161.327 24.9936L161.859 25.432ZM161.811 20.944L161.275 21.3779L161.28 21.3844L161.286 21.3907L161.811 20.944ZM159.603 20.44H158.914V21.1297H159.603V20.44ZM159.603 18.04V17.3503H158.914V18.04H159.603ZM161.739 17.632L161.252 17.1443L161.244 17.1517L161.237 17.1593L161.739 17.632ZM161.787 13.768L162.304 13.3117L162.304 13.3117L161.787 13.768ZM159.555 16.024V16.7137H160.245V16.024H159.555ZM157.059 16.024H156.37V16.7137H157.059V16.024ZM158.043 12.04L157.539 11.5694L157.533 11.5755L158.043 12.04ZM163.803 12.04L163.293 12.5045L163.299 12.5102L163.803 12.04ZM164.331 17.92L164.933 18.2565L164.937 18.249L164.331 17.92ZM162.915 19.096L162.673 18.4503L162.226 18.6181V19.096H162.915ZM162.915 19.144H162.226V19.6232L162.675 19.7904L162.915 19.144ZM164.403 20.392L163.793 20.7139L164.403 20.392ZM163.851 27.184L163.347 26.7134L163.347 26.7138L163.851 27.184ZM160.923 28.24V27.5503C159.755 27.5503 158.979 27.2293 158.475 26.6894L157.971 27.16L157.467 27.6306C158.307 28.5307 159.499 28.9297 160.923 28.9297V28.24ZM157.971 27.16L158.481 26.6955C157.978 26.1439 157.677 25.3019 157.677 24.064H156.987H156.298C156.298 25.5141 156.652 26.7361 157.461 27.6245L157.971 27.16ZM156.987 24.064H157.677V22.696H156.987H156.298V24.064H156.987ZM156.987 22.696V23.3857H159.483V22.696V22.0063H156.987V22.696ZM159.483 22.696H158.794V24.184H159.483H160.173V22.696H159.483ZM159.483 24.184H158.794C158.794 24.8137 158.921 25.4142 159.293 25.8652C159.687 26.3415 160.25 26.5297 160.851 26.5297V25.84V25.1503C160.54 25.1503 160.419 25.0625 160.357 24.9868C160.274 24.8858 160.173 24.6583 160.173 24.184H159.483ZM160.851 25.84V26.5297C161.445 26.5297 162.002 26.3431 162.392 25.8704L161.859 25.432L161.327 24.9936C161.268 25.0649 161.154 25.1503 160.851 25.1503V25.84ZM161.859 25.432L162.389 25.8735C162.791 25.3916 162.909 24.6857 162.909 23.944H162.219H161.53C161.53 24.6103 161.408 24.8964 161.329 24.9905L161.859 25.432ZM162.219 23.944H162.909V22.576H162.219H161.53V23.944H162.219ZM162.219 22.576H162.909C162.909 21.7646 162.773 21.0103 162.337 20.4973L161.811 20.944L161.286 21.3907C161.394 21.5177 161.53 21.8514 161.53 22.576H162.219ZM161.811 20.944L162.347 20.5101C161.897 19.9541 161.219 19.7503 160.491 19.7503V20.44V21.1297C160.98 21.1297 161.181 21.2619 161.275 21.3779L161.811 20.944ZM160.491 20.44V19.7503H159.603V20.44V21.1297H160.491V20.44ZM159.603 20.44H160.293V18.04H159.603H158.914V20.44H159.603ZM159.603 18.04V18.7297H160.563V18.04V17.3503H159.603V18.04ZM160.563 18.04V18.7297C161.201 18.7297 161.809 18.5644 162.241 18.1047L161.739 17.632L161.237 17.1593C161.158 17.2436 160.981 17.3503 160.563 17.3503V18.04ZM161.739 17.632L162.227 18.1197C162.691 17.655 162.837 16.972 162.837 16.264H162.147H161.458C161.458 16.836 161.331 17.065 161.252 17.1443L161.739 17.632ZM162.147 16.264H162.837V15.04H162.147H161.458V16.264H162.147ZM162.147 15.04H162.837C162.837 14.3896 162.705 13.7656 162.304 13.3117L161.787 13.768L161.27 14.2243C161.35 14.3144 161.458 14.5384 161.458 15.04H162.147ZM161.787 13.768L162.304 13.3117C161.919 12.8751 161.402 12.6703 160.827 12.6703V13.36V14.0497C161.052 14.0497 161.175 14.1169 161.27 14.2243L161.787 13.768ZM160.827 13.36V12.6703C160.255 12.6703 159.715 12.8525 159.339 13.3142C158.984 13.7489 158.866 14.324 158.866 14.92H159.555H160.245C160.245 14.476 160.338 14.2711 160.408 14.1858C160.455 14.1275 160.551 14.0497 160.827 14.0497V13.36ZM159.555 14.92H158.866V16.024H159.555H160.245V14.92H159.555ZM159.555 16.024V15.3343H157.059V16.024V16.7137H159.555V16.024ZM157.059 16.024H157.749V15.136H157.059H156.37V16.024H157.059ZM157.059 15.136H157.749C157.749 13.8981 158.05 13.0561 158.553 12.5045L158.043 12.04L157.533 11.5755C156.724 12.4639 156.37 13.6859 156.37 15.136H157.059ZM158.043 12.04L158.547 12.5106C159.056 11.9656 159.812 11.6497 160.923 11.6497V10.96V10.2703C159.538 10.2703 158.374 10.6744 157.539 11.5694L158.043 12.04ZM160.923 10.96V11.6497C162.054 11.6497 162.804 11.9676 163.293 12.5045L163.803 12.04L164.313 11.5755C163.49 10.6724 162.32 10.2703 160.923 10.2703V10.96ZM163.803 12.04L163.299 12.5102C163.795 13.0434 164.098 13.8729 164.098 15.112H164.787H165.477C165.477 13.6631 165.123 12.4446 164.308 11.5698L163.803 12.04ZM164.787 15.112H164.098V15.712H164.787H165.477V15.112H164.787ZM164.787 15.712H164.098C164.098 16.5555 163.956 17.1662 163.725 17.591L164.331 17.92L164.937 18.249C165.315 17.5538 165.477 16.6924 165.477 15.712H164.787ZM164.331 17.92L163.729 17.5836C163.513 17.971 163.176 18.2616 162.673 18.4503L162.915 19.096L163.157 19.7417C163.934 19.4504 164.542 18.957 164.933 18.2564L164.331 17.92ZM162.915 19.096H162.226V19.144H162.915H163.605V19.096H162.915ZM162.915 19.144L162.675 19.7904C163.226 19.9953 163.579 20.307 163.793 20.7139L164.403 20.392L165.013 20.0701C164.62 19.325 163.981 18.8047 163.156 18.4976L162.915 19.144ZM164.403 20.392L163.793 20.7139C164.029 21.1605 164.17 21.7762 164.17 22.6H164.859H165.549C165.549 21.6318 165.385 20.7755 165.013 20.0701L164.403 20.392ZM164.859 22.6H164.17V24.088H164.859H165.549V22.6H164.859ZM164.859 24.088H164.17C164.17 25.3219 163.862 26.1616 163.347 26.7134L163.851 27.184L164.355 27.6546C165.184 26.7664 165.549 25.5421 165.549 24.088H164.859ZM163.851 27.184L163.347 26.7138C162.862 27.2343 162.097 27.5503 160.923 27.5503V28.24V28.9297C162.341 28.9297 163.529 28.5417 164.356 27.6542L163.851 27.184Z" fill="#452B26" mask="url(#path-7-outside-1_3003_300)"/>
</svg>
